<svg width="12" height="12" viewBox="0 0 12 12" fill="none" xmlns="http://www.w3.org/2000/svg">
<path d="M8.51534 6.26552L4.76534 10.0155C4.7305 10.0504 4.68913 10.078 4.64361 10.0969C4.59809 10.1157 4.5493 10.1254 4.50003 10.1254C4.45075 10.1254 4.40196 10.1157 4.35644 10.0969C4.31092 10.078 4.26955 10.0504 4.23471 10.0155C4.19987 9.98068 4.17223 9.93932 4.15338 9.8938C4.13452 9.84827 4.12482 9.79948 4.12482 9.75021C4.12482 9.70094 4.13452 9.65215 4.15338 9.60662C4.17223 9.5611 4.19987 9.51974 4.23471 9.4849L7.71987 6.00021L4.23471 2.51552C4.16435 2.44516 4.12482 2.34972 4.12482 2.25021C4.12482 2.1507 4.16435 2.05526 4.23471 1.9849C4.30508 1.91453 4.40051 1.875 4.50003 1.875C4.59954 1.875 4.69497 1.91453 4.76534 1.9849L8.51534 5.7349C8.5502 5.76972 8.57786 5.81108 8.59674 5.85661C8.61561 5.90213 8.62532 5.95093 8.62532 6.00021C8.62532 6.04949 8.61561 6.09829 8.59674 6.14381C8.57786 6.18934 8.5502 6.23069 8.51534 6.26552Z" fill="#686583"/>
</svg>
