<svg width="12" height="12" viewBox="0 0 12 12" fill="none" xmlns="http://www.w3.org/2000/svg">
<path d="M7.7653 9.4849C7.80014 9.51974 7.82778 9.5611 7.84664 9.60662C7.86549 9.65215 7.8752 9.70094 7.8752 9.75021C7.8752 9.79948 7.86549 9.84827 7.84664 9.8938C7.82778 9.93932 7.80014 9.98068 7.7653 10.0155C7.73046 10.0504 7.6891 10.078 7.64358 10.0969C7.59805 10.1157 7.54926 10.1254 7.49999 10.1254C7.45072 10.1254 7.40193 10.1157 7.3564 10.0969C7.31088 10.078 7.26952 10.0504 7.23468 10.0155L3.48468 6.26552C3.44981 6.23069 3.42215 6.18934 3.40328 6.14381C3.38441 6.09829 3.37469 6.04949 3.37469 6.00021C3.37469 5.95093 3.38441 5.90213 3.40328 5.85661C3.42215 5.81108 3.44981 5.76972 3.48468 5.7349L7.23468 1.9849C7.30504 1.91453 7.40048 1.875 7.49999 1.875C7.5995 1.875 7.69494 1.91453 7.7653 1.9849C7.83567 2.05526 7.8752 2.1507 7.8752 2.25021C7.8752 2.34972 7.83567 2.44516 7.7653 2.51552L4.28015 6.00021L7.7653 9.4849Z" fill="#171A1F"/>
</svg>
