<svg width="16" height="16" viewBox="0 0 16 16" fill="none" xmlns="http://www.w3.org/2000/svg">
<path d="M13 5.5H11V4C11 3.20435 10.6839 2.44129 10.1213 1.87868C9.55871 1.31607 8.79565 1 8 1C7.20435 1 6.44129 1.31607 5.87868 1.87868C5.31607 2.44129 5 3.20435 5 4V5.5H3C2.73478 5.5 2.48043 5.60536 2.29289 5.79289C2.10536 5.98043 2 6.23478 2 6.5V13.5C2 13.7652 2.10536 14.0196 2.29289 14.2071C2.48043 14.3946 2.73478 14.5 3 14.5H13C13.2652 14.5 13.5196 14.3946 13.7071 14.2071C13.8946 14.0196 14 13.7652 14 13.5V6.5C14 6.23478 13.8946 5.98043 13.7071 5.79289C13.5196 5.60536 13.2652 5.5 13 5.5ZM6 4C6 3.46957 6.21071 2.96086 6.58579 2.58579C6.96086 2.21071 7.46957 2 8 2C8.53043 2 9.03914 2.21071 9.41421 2.58579C9.78929 2.96086 10 3.46957 10 4V5.5H6V4ZM13 13.5H3V6.5H13V13.5ZM8.75 10C8.75 10.1483 8.70601 10.2933 8.6236 10.4167C8.54119 10.54 8.42406 10.6361 8.28701 10.6929C8.14997 10.7497 7.99917 10.7645 7.85368 10.7356C7.7082 10.7067 7.57456 10.6352 7.46967 10.5303C7.36478 10.4254 7.29335 10.2918 7.26441 10.1463C7.23547 10.0008 7.25032 9.85003 7.30709 9.71299C7.36386 9.57594 7.45999 9.45881 7.58332 9.3764C7.70666 9.29399 7.85166 9.25 8 9.25C8.19891 9.25 8.38968 9.32902 8.53033 9.46967C8.67098 9.61032 8.75 9.80109 8.75 10Z" fill="#565E6C"/>
</svg>
