<svg width="24" height="24" viewBox="0 0 24 24" fill="none" xmlns="http://www.w3.org/2000/svg">
<g clip-path="url(#clip0_2_789)">
<path d="M5.10563 15.4416L7.71844 11.8594C8.5058 12.6676 8.9608 13.7421 8.99329 14.8699C9.02579 15.9978 8.63339 17.0967 7.89387 17.9489C7.15435 18.8011 6.12167 19.3443 5.00048 19.4711C3.87929 19.5978 2.75142 19.2986 1.84037 18.633C0.929317 17.9673 0.301577 16.9837 0.0815494 15.877C-0.138479 14.7704 0.0652618 13.6214 0.652396 12.6579C1.23953 11.6944 2.16721 10.9866 3.25159 10.6748C4.33598 10.3629 5.49793 10.4699 6.50719 10.9744L3.89438 14.5584C3.83209 14.6377 3.7864 14.7286 3.76005 14.8259C3.7337 14.9232 3.72723 15.0248 3.74102 15.1246C3.75481 15.2244 3.78858 15.3205 3.84031 15.407C3.89204 15.4935 3.96068 15.5686 4.04211 15.628C4.12355 15.6874 4.21612 15.7297 4.31429 15.7525C4.41246 15.7753 4.51421 15.7781 4.61348 15.7607C4.71275 15.7433 4.80749 15.7061 4.89205 15.6513C4.97661 15.5964 5.04925 15.5251 5.10563 15.4416ZM19.5 10.5C18.9578 10.4998 18.42 10.5979 17.9128 10.7897L20.1478 14.625C20.2046 14.7103 20.2433 14.8063 20.2616 14.9071C20.2798 15.0079 20.2772 15.1114 20.2539 15.2112C20.2307 15.3109 20.1872 15.4049 20.1262 15.4872C20.0652 15.5695 19.988 15.6385 19.8993 15.6898C19.8106 15.7411 19.7124 15.7738 19.6106 15.7857C19.5089 15.7975 19.4058 15.7885 19.3076 15.759C19.2095 15.7295 19.1185 15.6802 19.0402 15.6141C18.9618 15.5481 18.8979 15.4667 18.8522 15.375L16.6181 11.5444C15.8052 12.2224 15.2574 13.1653 15.071 14.2073C14.8845 15.2493 15.0713 16.3237 15.5986 17.2416C16.1259 18.1595 16.9599 18.8621 17.954 19.2259C18.9481 19.5897 20.0386 19.5914 21.0338 19.2308C22.029 18.8701 22.8652 18.1701 23.3954 17.2539C23.9256 16.3377 24.1159 15.264 23.9327 14.2214C23.7496 13.1788 23.2047 12.2341 22.394 11.5535C21.5833 10.8729 20.5586 10.4999 19.5 10.5ZM15.5559 6.75H18C18.1989 6.75 18.3897 6.82902 18.5303 6.96967C18.671 7.11032 18.75 7.30109 18.75 7.5C18.75 7.69891 18.829 7.88968 18.9697 8.03033C19.1103 8.17098 19.3011 8.25 19.5 8.25C19.6989 8.25 19.8897 8.17098 20.0303 8.03033C20.171 7.88968 20.25 7.69891 20.25 7.5C20.25 6.90326 20.013 6.33097 19.591 5.90901C19.169 5.48705 18.5967 5.25 18 5.25H14.25C14.1185 5.2503 13.9894 5.28517 13.8756 5.35112C13.7618 5.41707 13.6674 5.51177 13.6018 5.62574C13.5361 5.7397 13.5016 5.86892 13.5017 6.00043C13.5018 6.13193 13.5364 6.26111 13.6022 6.375L14.6944 8.25H9.30563L7.77282 5.625C7.70713 5.51124 7.61272 5.41672 7.49904 5.35091C7.38535 5.2851 7.25637 5.2503 7.125 5.25H4.5C4.30109 5.25 4.11033 5.32902 3.96967 5.46967C3.82902 5.61032 3.75 5.80109 3.75 6C3.75 6.19891 3.82902 6.38968 3.96967 6.53033C4.11033 6.67098 4.30109 6.75 4.5 6.75H6.69469L7.98 8.95406L6.50719 10.9744C6.95773 11.1993 7.3672 11.4985 7.71844 11.8594L8.805 10.3687L11.7272 15.375C11.7729 15.4667 11.8368 15.5481 11.9152 15.6141C11.9935 15.6802 12.0845 15.7295 12.1826 15.759C12.2808 15.7885 12.3839 15.7975 12.4856 15.7857C12.5874 15.7738 12.6856 15.7411 12.7743 15.6898C12.863 15.6385 12.9402 15.5695 13.0012 15.4872C13.0622 15.4049 13.1057 15.3109 13.1289 15.2112C13.1522 15.1114 13.1548 15.0079 13.1366 14.9071C13.1183 14.8063 13.0796 14.7103 13.0228 14.625L10.1803 9.75H15.5691L16.6181 11.5472C17.0044 11.2242 17.442 10.9682 17.9128 10.7897L15.5559 6.75Z" fill="black"/>
</g>
<defs>
<clipPath id="clip0_2_789">
<rect width="24" height="24" fill="white"/>
</clipPath>
</defs>
</svg>
