<svg width="12" height="12" viewBox="0 0 12 12" fill="none" xmlns="http://www.w3.org/2000/svg">
<path d="M7.875 2.25V9.75C7.87506 9.82421 7.85309 9.89677 7.81189 9.95849C7.77069 10.0202 7.7121 10.0683 7.64354 10.0967C7.57498 10.1251 7.49954 10.1326 7.42676 10.1181C7.35398 10.1036 7.28713 10.0678 7.23468 10.0153L3.48468 6.26531C3.44982 6.23049 3.42216 6.18913 3.40329 6.1436C3.38442 6.09808 3.3747 6.04928 3.3747 6C3.3747 5.95072 3.38442 5.90192 3.40329 5.8564C3.42216 5.81087 3.44982 5.76951 3.48468 5.73469L7.23468 1.98469C7.28713 1.93218 7.35398 1.89642 7.42676 1.88193C7.49954 1.86743 7.57498 1.87486 7.64354 1.90327C7.7121 1.93167 7.77069 1.97978 7.81189 2.04151C7.85309 2.10323 7.87506 2.17579 7.875 2.25Z" fill="#565E6C"/>
</svg>
