<svg width="12" height="12" viewBox="0 0 12 12" fill="none" xmlns="http://www.w3.org/2000/svg">
<path d="M10.7653 3.64028L4.76532 9.64028C4.73049 9.67514 4.68913 9.7028 4.64361 9.72167C4.59808 9.74055 4.54928 9.75026 4.5 9.75026C4.45072 9.75026 4.40192 9.74055 4.3564 9.72167C4.31088 9.7028 4.26952 9.67514 4.23469 9.64028L1.60969 7.01528C1.53932 6.94491 1.49979 6.84948 1.49979 6.74996C1.49979 6.65045 1.53932 6.55502 1.60969 6.48465C1.68006 6.41429 1.77549 6.37476 1.875 6.37476C1.97451 6.37476 2.06995 6.41429 2.14031 6.48465L4.5 8.84481L10.2347 3.10965C10.3051 3.03929 10.4005 2.99976 10.5 2.99976C10.5995 2.99976 10.695 3.03929 10.7653 3.10965C10.8357 3.18002 10.8752 3.27545 10.8752 3.37496C10.8752 3.47448 10.8357 3.56991 10.7653 3.64028Z" fill="black"/>
</svg>
