<svg width="52" height="52" viewBox="0 0 52 52" fill="none" xmlns="http://www.w3.org/2000/svg">
<circle cx="26" cy="26" r="26" fill="#00BDD6"/>
<path d="M33.7436 32.8816L29.9297 29.0684C31.0351 27.7413 31.5864 26.0391 31.4687 24.3159C31.3511 22.5927 30.5736 20.9812 29.298 19.8166C28.0225 18.652 26.3471 18.024 24.6203 18.0633C22.8935 18.1025 21.2484 18.806 20.027 20.0273C18.8057 21.2486 18.1023 22.8938 18.063 24.6205C18.0238 26.3473 18.6518 28.0227 19.8163 29.2983C20.9809 30.5738 22.5924 31.3513 24.3156 31.4689C26.0388 31.5866 27.7411 31.0354 29.0682 29.9299L32.8814 33.7439C32.938 33.8005 33.0052 33.8454 33.0792 33.876C33.1531 33.9067 33.2324 33.9225 33.3125 33.9225C33.3926 33.9225 33.4718 33.9067 33.5458 33.876C33.6198 33.8454 33.687 33.8005 33.7436 33.7439C33.8002 33.6873 33.8452 33.62 33.8758 33.5461C33.9064 33.4721 33.9222 33.3928 33.9222 33.3127C33.9222 33.2327 33.9064 33.1534 33.8758 33.0794C33.8452 33.0054 33.8002 32.9382 33.7436 32.8816ZM19.2969 24.7815C19.2969 23.6968 19.6185 22.6364 20.2211 21.7345C20.8238 20.8326 21.6803 20.1297 22.6825 19.7146C23.6846 19.2995 24.7873 19.1909 25.8512 19.4025C26.9151 19.6141 27.8923 20.1364 28.6593 20.9034C29.4263 21.6704 29.9486 22.6477 30.1602 23.7115C30.3719 24.7754 30.2632 25.8781 29.8481 26.8803C29.433 27.8824 28.7301 28.7389 27.8282 29.3416C26.9263 29.9442 25.8659 30.2659 24.7812 30.2659C23.3272 30.2642 21.9332 29.6859 20.905 28.6577C19.8768 27.6296 19.2985 26.2355 19.2969 24.7815Z" fill="white"/>
</svg>
