<svg width="32" height="32" viewBox="0 0 32 32" fill="none" xmlns="http://www.w3.org/2000/svg">
<circle cx="16" cy="16" r="16" fill="#00BDD6"/>
<path d="M20.7653 20.2348L18.4183 17.8882C19.0985 17.0715 19.4377 16.024 19.3653 14.9636C19.2929 13.9031 18.8145 12.9114 18.0296 12.1948C17.2446 11.4781 16.2136 11.0917 15.1509 11.1158C14.0883 11.14 13.0759 11.5729 12.3243 12.3244C11.5727 13.076 11.1398 14.0884 11.1157 15.1511C11.0915 16.2137 11.478 17.2447 12.1947 18.0297C12.9113 18.8146 13.903 19.2931 14.9635 19.3655C16.0239 19.4379 17.0714 19.0987 17.8881 18.4184L20.2347 20.7654C20.2695 20.8003 20.3109 20.8279 20.3564 20.8468C20.4019 20.8656 20.4507 20.8753 20.5 20.8753C20.5493 20.8753 20.598 20.8656 20.6436 20.8468C20.6891 20.8279 20.7305 20.8003 20.7653 20.7654C20.8001 20.7306 20.8278 20.6892 20.8466 20.6437C20.8655 20.5982 20.8752 20.5494 20.8752 20.5001C20.8752 20.4508 20.8655 20.402 20.8466 20.3565C20.8278 20.311 20.8001 20.2696 20.7653 20.2348ZM11.875 15.2501C11.875 14.5826 12.0729 13.9301 12.4438 13.3751C12.8146 12.82 13.3417 12.3875 13.9584 12.132C14.5751 11.8766 15.2537 11.8097 15.9084 11.94C16.5631 12.0702 17.1645 12.3916 17.6365 12.8636C18.1085 13.3356 18.4299 13.937 18.5601 14.5917C18.6904 15.2464 18.6235 15.925 18.3681 16.5417C18.1126 17.1584 17.6801 17.6855 17.125 18.0563C16.57 18.4272 15.9175 18.6251 15.25 18.6251C14.3552 18.6241 13.4973 18.2682 12.8646 17.6355C12.2319 17.0028 11.876 16.1449 11.875 15.2501Z" fill="white"/>
</svg>
