<svg width="32" height="32" viewBox="0 0 32 32" fill="none" xmlns="http://www.w3.org/2000/svg">
<circle cx="16" cy="16" r="16" fill="#00BDD6"/>
<path d="M20.7653 20.2347L18.4183 17.8881C19.0985 17.0714 19.4377 16.0239 19.3653 14.9635C19.2929 13.903 18.8145 12.9113 18.0296 12.1947C17.2446 11.478 16.2136 11.0915 15.1509 11.1157C14.0883 11.1398 13.0759 11.5727 12.3243 12.3243C11.5727 13.0759 11.1398 14.0883 11.1157 15.1509C11.0915 16.2136 11.478 17.2446 12.1947 18.0296C12.9113 18.8145 13.903 19.2929 14.9635 19.3653C16.0239 19.4377 17.0714 19.0985 17.8881 18.4183L20.2347 20.7653C20.2695 20.8001 20.3109 20.8278 20.3564 20.8466C20.4019 20.8655 20.4507 20.8752 20.5 20.8752C20.5493 20.8752 20.598 20.8655 20.6436 20.8466C20.6891 20.8278 20.7305 20.8001 20.7653 20.7653C20.8001 20.7305 20.8278 20.6891 20.8466 20.6436C20.8655 20.598 20.8752 20.5493 20.8752 20.5C20.8752 20.4507 20.8655 20.4019 20.8466 20.3564C20.8278 20.3109 20.8001 20.2695 20.7653 20.2347ZM11.875 15.25C11.875 14.5825 12.0729 13.93 12.4438 13.3749C12.8146 12.8199 13.3417 12.3873 13.9584 12.1319C14.5751 11.8764 15.2537 11.8096 15.9084 11.9398C16.5631 12.0701 17.1645 12.3915 17.6365 12.8635C18.1085 13.3355 18.4299 13.9369 18.5601 14.5916C18.6904 15.2462 18.6235 15.9248 18.3681 16.5415C18.1126 17.1582 17.6801 17.6853 17.125 18.0562C16.57 18.427 15.9175 18.625 15.25 18.625C14.3552 18.624 13.4973 18.2681 12.8646 17.6354C12.2319 17.0027 11.876 16.1448 11.875 15.25Z" fill="white"/>
</svg>
