<svg width="16" height="16" viewBox="0 0 16 16" fill="none" xmlns="http://www.w3.org/2000/svg">
<path d="M8 1.5C6.71442 1.5 5.45772 1.88122 4.3888 2.59545C3.31988 3.30968 2.48676 4.32484 1.99479 5.51256C1.50282 6.70028 1.37409 8.00721 1.6249 9.26809C1.8757 10.529 2.49477 11.6872 3.40381 12.5962C4.31285 13.5052 5.47104 14.1243 6.73192 14.3751C7.99279 14.6259 9.29973 14.4972 10.4874 14.0052C11.6752 13.5132 12.6903 12.6801 13.4046 11.6112C14.1188 10.5423 14.5 9.28558 14.5 8C14.4982 6.27665 13.8128 4.62441 12.5942 3.40582C11.3756 2.18722 9.72335 1.50182 8 1.5ZM8 13.5C6.91221 13.5 5.84884 13.1774 4.94437 12.5731C4.0399 11.9687 3.33495 11.1098 2.91867 10.1048C2.50238 9.09977 2.39347 7.9939 2.60568 6.927C2.8179 5.86011 3.34173 4.8801 4.11092 4.11091C4.8801 3.34172 5.86011 2.8179 6.92701 2.60568C7.9939 2.39346 9.09977 2.50238 10.1048 2.91866C11.1098 3.33494 11.9687 4.03989 12.5731 4.94436C13.1774 5.84883 13.5 6.9122 13.5 8C13.4983 9.45818 12.9184 10.8562 11.8873 11.8873C10.8562 12.9184 9.45819 13.4983 8 13.5ZM5 6.75C5 6.60166 5.04399 6.45666 5.1264 6.33332C5.20881 6.20999 5.32595 6.11386 5.46299 6.05709C5.60003 6.00032 5.75084 5.98547 5.89632 6.01441C6.04181 6.04335 6.17544 6.11478 6.28033 6.21967C6.38522 6.32456 6.45665 6.4582 6.48559 6.60368C6.51453 6.74917 6.49968 6.89997 6.44291 7.03701C6.38615 7.17406 6.29002 7.29119 6.16668 7.3736C6.04334 7.45601 5.89834 7.5 5.75 7.5C5.55109 7.5 5.36032 7.42098 5.21967 7.28033C5.07902 7.13968 5 6.94891 5 6.75ZM11 6.75C11 6.89834 10.956 7.04334 10.8736 7.16668C10.7912 7.29001 10.6741 7.38614 10.537 7.44291C10.4 7.49968 10.2492 7.51453 10.1037 7.48559C9.9582 7.45665 9.82456 7.38522 9.71967 7.28033C9.61478 7.17544 9.54335 7.0418 9.51441 6.89632C9.48547 6.75083 9.50033 6.60003 9.55709 6.46299C9.61386 6.32594 9.70999 6.20881 9.83333 6.1264C9.95666 6.04399 10.1017 6 10.25 6C10.4489 6 10.6397 6.07902 10.7803 6.21967C10.921 6.36032 11 6.55109 11 6.75ZM10.9331 9.75C10.29 10.8619 9.22063 11.5 8 11.5C6.77938 11.5 5.71063 10.8625 5.0675 9.75C5.03133 9.69309 5.00703 9.62945 4.99609 9.56291C4.98515 9.49637 4.98777 9.4283 5.00382 9.36281C5.01986 9.29731 5.04899 9.23573 5.08945 9.18178C5.1299 9.12783 5.18086 9.08262 5.23924 9.04888C5.29762 9.01513 5.36223 8.99354 5.42917 8.98541C5.49611 8.97728 5.56401 8.98277 5.62877 9.00156C5.69354 9.02035 5.75383 9.05205 5.80603 9.09474C5.85822 9.13743 5.90125 9.19025 5.9325 9.25C6.39938 10.0569 7.13313 10.5 8 10.5C8.86688 10.5 9.60063 10.0562 10.0669 9.25C10.1332 9.13513 10.2424 9.0513 10.3705 9.01696C10.4986 8.98261 10.6351 9.00057 10.75 9.06688C10.8649 9.13318 10.9487 9.2424 10.983 9.37051C11.0174 9.49862 10.9994 9.63513 10.9331 9.75Z" fill="#9095A0"/>
</svg>
