<svg width="12" height="12" viewBox="0 0 12 12" fill="none" xmlns="http://www.w3.org/2000/svg">
<path d="M8.24999 7.50004C7.99984 7.49996 7.75221 7.55007 7.52177 7.64742C7.29133 7.74476 7.08277 7.88736 6.90843 8.06676L4.74749 6.67785C4.91747 6.24196 4.91747 5.75811 4.74749 5.32222L6.90843 3.93332C7.23302 4.26581 7.6695 4.46594 8.13326 4.49489C8.59702 4.52385 9.05501 4.37958 9.41843 4.09004C9.78186 3.80051 10.0248 3.38634 10.1002 2.92784C10.1757 2.46934 10.0781 1.99917 9.82659 1.60849C9.57505 1.21781 9.18739 0.934446 8.73879 0.813341C8.29019 0.692236 7.8126 0.742016 7.39862 0.953031C6.98463 1.16405 6.66375 1.52126 6.49818 1.95542C6.33261 2.38958 6.33414 2.86976 6.50249 3.30285L4.34155 4.69176C4.08133 4.4246 3.74736 4.24112 3.38232 4.16476C3.01728 4.0884 2.63777 4.12263 2.29228 4.26308C1.9468 4.40353 1.65105 4.64382 1.44284 4.95322C1.23463 5.26263 1.12341 5.6271 1.12341 6.00004C1.12341 6.37298 1.23463 6.73744 1.44284 7.04685C1.65105 7.35625 1.9468 7.59654 2.29228 7.73699C2.63777 7.87744 3.01728 7.91167 3.38232 7.83531C3.74736 7.75895 4.08133 7.57547 4.34155 7.30832L6.50249 8.69722C6.35773 9.0706 6.3363 9.48051 6.44136 9.86694C6.54642 10.2534 6.77244 10.596 7.08632 10.8447C7.4002 11.0934 7.78546 11.235 8.18567 11.2489C8.58588 11.2628 8.98003 11.1482 9.31039 10.9219C9.64076 10.6955 9.88998 10.3694 10.0216 9.99116C10.1532 9.61294 10.1602 9.20253 10.0417 8.82002C9.92313 8.43752 9.68524 8.10301 9.36283 7.86548C9.04043 7.62795 8.65045 7.49989 8.24999 7.50004ZM8.24999 1.50004C8.47249 1.50004 8.69 1.56602 8.87501 1.68963C9.06001 1.81325 9.20421 1.98895 9.28936 2.19452C9.3745 2.40008 9.39678 2.62628 9.35337 2.84451C9.30997 3.06274 9.20282 3.2632 9.04549 3.42053C8.88815 3.57787 8.6877 3.68501 8.46947 3.72842C8.25124 3.77183 8.02504 3.74955 7.81947 3.6644C7.61391 3.57925 7.4382 3.43506 7.31459 3.25005C7.19097 3.06505 7.12499 2.84754 7.12499 2.62504C7.12499 2.32667 7.24352 2.04052 7.4545 1.82954C7.66547 1.61856 7.95162 1.50004 8.24999 1.50004ZM2.99999 7.12504C2.77749 7.12504 2.55998 7.05906 2.37497 6.93544C2.18997 6.81182 2.04577 6.63612 1.96063 6.43056C1.87548 6.22499 1.8532 5.99879 1.89661 5.78056C1.94002 5.56233 2.04716 5.36188 2.2045 5.20454C2.36183 5.04721 2.56229 4.94006 2.78051 4.89665C2.99874 4.85324 3.22494 4.87552 3.43051 4.96067C3.63608 5.04582 3.81178 5.19001 3.93539 5.37502C4.05901 5.56003 4.12499 5.77753 4.12499 6.00004C4.12499 6.29841 4.00646 6.58455 3.79549 6.79553C3.58451 7.00651 3.29836 7.12504 2.99999 7.12504ZM8.24999 10.5C8.02749 10.5 7.80998 10.4341 7.62497 10.3104C7.43997 10.1868 7.29577 10.0111 7.21063 9.80556C7.12548 9.59999 7.1032 9.37379 7.14661 9.15556C7.19002 8.93733 7.29716 8.73688 7.4545 8.57954C7.61183 8.42221 7.81229 8.31506 8.03051 8.27165C8.24874 8.22824 8.47494 8.25052 8.68051 8.33567C8.88608 8.42082 9.06178 8.56501 9.18539 8.75002C9.30901 8.93503 9.37499 9.15253 9.37499 9.37504C9.37499 9.67341 9.25646 9.95955 9.04549 10.1705C8.83451 10.3815 8.54836 10.5 8.24999 10.5Z" fill="#686583"/>
</svg>
