<svg width="24" height="24" viewBox="0 0 24 24" fill="none" xmlns="http://www.w3.org/2000/svg">
<path d="M22.9078 8.69988L13.1578 20.4589C13.0169 20.6292 12.8399 20.766 12.6397 20.8595C12.4395 20.9531 12.221 21.001 12 20.9999C11.7796 21.0004 11.5619 20.9522 11.3624 20.8587C11.1628 20.7652 10.9865 20.6287 10.8459 20.4589L1.09219 8.69988C0.963817 8.54651 0.868156 8.36851 0.811085 8.17682C0.754014 7.98514 0.736737 7.7838 0.760316 7.58519C0.783774 7.38609 0.84708 7.19375 0.946457 7.01964C1.04584 6.84553 1.17925 6.69321 1.33875 6.57175C4.40287 4.24085 8.15011 2.9854 12 2.99988C15.8499 2.9854 19.5971 4.24085 22.6613 6.57175C22.8208 6.69321 22.9542 6.84553 23.0535 7.01964C23.1529 7.19375 23.2162 7.38609 23.2397 7.58519C23.2633 7.7838 23.246 7.98514 23.1889 8.17682C23.1319 8.36851 23.0362 8.54651 22.9078 8.69988Z" fill="black"/>
</svg>
